<svg width="232" height="127" viewBox="0 0 232 127" fill="none" xmlns="http://www.w3.org/2000/svg">
<path d="M223.48 99.2421C223.875 98.8563 223.883 98.2232 223.497 97.828L217.211 91.3869C216.825 90.9917 216.192 90.9839 215.797 91.3697C215.402 91.7554 215.394 92.3885 215.78 92.7838L221.367 98.5092L215.642 104.097C215.247 104.482 215.239 105.116 215.625 105.511C216.01 105.906 216.643 105.914 217.039 105.528L223.48 99.2421ZM106.19 77.8527L105.766 78.7585L106.19 77.8527ZM12.7891 1C12.0485 1.67198 12.0488 1.67228 12.0492 1.6728C12.0497 1.67327 12.0503 1.67401 12.0512 1.67494C12.0529 1.6768 12.0554 1.67953 12.0586 1.68314C12.0652 1.69034 12.0749 1.70102 12.0877 1.71512C12.1134 1.74333 12.1516 1.78524 12.2021 1.84048C12.3031 1.95097 12.4532 2.11481 12.6505 2.32907C13.0452 2.75758 13.6286 3.38778 14.3853 4.19623C15.8988 5.81311 18.1057 8.14314 20.8821 10.9988C26.4344 16.7096 34.2667 24.525 43.3875 32.9437C61.6044 49.7584 85.0508 69.0649 105.766 78.7585L106.614 76.947C86.1992 67.3941 62.9451 48.2742 44.744 31.4741C35.6559 23.0855 27.8498 15.2964 22.316 9.60461C19.5494 6.75895 17.3512 4.43813 15.8455 2.82948C15.0926 2.02517 14.5129 1.39895 14.1217 0.974218C13.9262 0.761856 13.7777 0.599873 13.6784 0.491196C13.6287 0.436858 13.5914 0.395847 13.5665 0.368529C13.554 0.354869 13.5447 0.344634 13.5386 0.337867C13.5355 0.334484 13.5332 0.331968 13.5317 0.330325C13.531 0.329503 13.5305 0.328927 13.5301 0.328515C13.5298 0.328158 13.5296 0.32802 12.7891 1ZM105.766 78.7585C127.044 88.7152 156.329 93.8966 180.215 96.5961C192.173 97.9476 202.808 98.68 210.453 99.0746C214.276 99.2719 217.352 99.3848 219.474 99.4484C220.535 99.4802 221.358 99.4997 221.915 99.5112C222.194 99.5169 222.407 99.5207 222.55 99.5231C222.622 99.5242 222.676 99.525 222.713 99.5256C222.731 99.5258 222.745 99.526 222.755 99.5261C222.759 99.5262 222.763 99.5262 222.765 99.5263C222.766 99.5263 222.767 99.5263 222.768 99.5263C222.769 99.5263 222.769 99.5263 222.781 98.5264C222.793 97.5265 222.793 97.5265 222.793 97.5265C222.792 97.5264 222.792 97.5264 222.791 97.5264C222.789 97.5264 222.785 97.5264 222.781 97.5263C222.772 97.5262 222.759 97.526 222.741 97.5258C222.706 97.5253 222.653 97.5245 222.583 97.5233C222.443 97.521 222.233 97.5173 221.957 97.5116C221.405 97.5002 220.589 97.4809 219.534 97.4493C217.425 97.3861 214.363 97.2738 210.556 97.0773C202.941 96.6843 192.348 95.9547 180.44 94.6088C156.591 91.9134 127.58 86.7579 106.614 76.947L105.766 78.7585Z" fill="white"/>
<g opacity="0.3" filter="url(#filter0_f_528_255)">
<path d="M227.495 103.226C227.882 102.832 227.876 102.199 227.481 101.812L221.056 95.5099C220.662 95.1231 220.029 95.1292 219.642 95.5235C219.256 95.9178 219.262 96.5509 219.656 96.9376L225.367 102.54L219.765 108.251C219.378 108.645 219.384 109.278 219.778 109.665C220.173 110.052 220.806 110.046 221.193 109.651L227.495 103.226ZM107.5 83.4998L107.077 84.4055L107.5 83.4998ZM17.0005 9.99979C16.2609 10.6728 16.2611 10.6731 16.2616 10.6736C16.262 10.6741 16.2626 10.6748 16.2634 10.6757C16.265 10.6774 16.2674 10.68 16.2705 10.6834C16.2767 10.6902 16.2859 10.7003 16.2981 10.7136C16.3224 10.7402 16.3585 10.7798 16.4063 10.8319C16.5018 10.9361 16.6439 11.0905 16.8306 11.2926C17.2041 11.6966 17.7565 12.2909 18.4736 13.0536C19.908 14.579 22.0018 16.7783 24.6424 19.477C29.9232 24.874 37.3934 32.2706 46.1523 40.2707C63.6479 56.2507 86.3661 74.7142 107.077 84.4055L107.924 82.594C87.5046 73.0388 64.9729 54.7523 47.5011 38.794C38.7761 30.8249 31.3332 23.4553 26.0719 18.0782C23.4415 15.39 21.3569 13.2003 19.9307 11.6836C19.2176 10.9252 18.6691 10.3351 18.2993 9.93501C18.1144 9.73497 17.9742 9.58245 17.8804 9.48017C17.8335 9.42903 17.7982 9.39045 17.7747 9.36476C17.763 9.35192 17.7542 9.34231 17.7485 9.33596C17.7456 9.33278 17.7434 9.33043 17.742 9.32889C17.7413 9.32812 17.7408 9.32759 17.7405 9.32721C17.7402 9.32688 17.7401 9.32676 17.0005 9.99979ZM107.077 84.4055C128.366 94.3675 158.334 99.1344 182.89 101.422C195.185 102.567 206.156 103.093 214.054 103.333C218.003 103.453 221.185 103.501 223.38 103.519C224.478 103.529 225.329 103.53 225.907 103.53C226.195 103.529 226.416 103.529 226.564 103.528C226.638 103.527 226.695 103.527 226.733 103.527C226.752 103.526 226.766 103.526 226.776 103.526C226.78 103.526 226.784 103.526 226.787 103.526C226.788 103.526 226.789 103.526 226.79 103.526C226.79 103.526 226.791 103.526 226.781 102.526C226.771 101.526 226.771 101.526 226.771 101.526C226.77 101.526 226.77 101.526 226.768 101.526C226.766 101.526 226.763 101.526 226.758 101.526C226.749 101.526 226.736 101.527 226.718 101.527C226.681 101.527 226.626 101.527 226.553 101.528C226.408 101.529 226.19 101.529 225.905 101.53C225.333 101.53 224.488 101.529 223.397 101.519C221.214 101.501 218.047 101.453 214.114 101.334C206.248 101.095 195.319 100.571 183.075 99.4302C158.551 97.146 128.879 92.3998 107.924 82.594L107.077 84.4055Z" fill="#673F1B"/>
</g>
<defs>
<filter id="filter0_f_528_255" x="12.2617" y="5.32715" width="219.52" height="108.624" filterUnits="userSpaceOnUse" color-interpolation-filters="sRGB">
<feFlood flood-opacity="0" result="BackgroundImageFix"/>
<feBlend mode="normal" in="SourceGraphic" in2="BackgroundImageFix" result="shape"/>
<feGaussianBlur stdDeviation="2" result="effect1_foregroundBlur_528_255"/>
</filter>
</defs>
</svg>
