<svg width="153" height="28" viewBox="0 0 153 28" fill="none" xmlns="http://www.w3.org/2000/svg">
<path d="M145.16 11.625C145.46 11.1613 145.328 10.5422 144.864 10.2422L137.307 5.3542C136.843 5.05424 136.224 5.18701 135.924 5.65074C135.624 6.11447 135.757 6.73356 136.221 7.03351L142.938 11.3784L138.593 18.0957C138.293 18.5594 138.426 19.1785 138.89 19.4785C139.353 19.7784 139.972 19.6457 140.272 19.1819L145.16 11.625ZM71.2331 18.4396L71.3083 17.4424L71.2331 18.4396ZM1.88281 1C1.53571 1.93783 1.53594 1.93791 1.53634 1.93806C1.53668 1.93819 1.53724 1.93839 1.53792 1.93864C1.53929 1.93915 1.54129 1.93989 1.54391 1.94086C1.54915 1.9428 1.5569 1.94566 1.56713 1.94942C1.58758 1.95696 1.61795 1.96814 1.65801 1.98284C1.73813 2.01224 1.85705 2.05574 2.01309 2.11249C2.32517 2.22597 2.78574 2.3924 3.3814 2.6048C4.5727 3.0296 6.30447 3.63832 8.46938 4.37516C12.7988 5.8487 18.8626 7.83534 25.8017 9.8882C39.6606 13.9882 57.083 18.3743 71.1578 19.4368L71.3083 17.4424C57.4564 16.3968 40.2036 12.0632 26.3691 7.97036C19.4615 5.92683 13.424 3.94883 9.11379 2.48182C6.9589 1.74839 5.23628 1.14287 4.05314 0.720986C3.46158 0.510048 3.00493 0.345031 2.69658 0.232903C2.54241 0.17684 2.42532 0.134 2.34698 0.105254C2.30781 0.0908816 2.27833 0.0800326 2.25875 0.0728162C2.24896 0.069208 2.24165 0.066508 2.23683 0.0647298C2.23443 0.0638406 2.23264 0.063182 2.23149 0.0627555C2.23091 0.0625422 2.23052 0.0623969 2.23023 0.06229C2.23 0.0622029 2.22992 0.0621741 1.88281 1ZM71.1578 19.4368C85.6139 20.528 103.976 18.6744 118.675 16.5625C126.035 15.5051 132.496 14.3799 137.117 13.5191C139.428 13.0886 141.28 12.7241 142.554 12.4671C143.192 12.3386 143.685 12.2369 144.019 12.1673C144.186 12.1325 144.313 12.1056 144.399 12.0875C144.442 12.0784 144.475 12.0715 144.497 12.0668C144.508 12.0645 144.516 12.0627 144.522 12.0615C144.524 12.0609 144.527 12.0605 144.528 12.0602C144.529 12.06 144.529 12.0599 144.53 12.0598C144.53 12.0597 144.53 12.0596 144.321 11.0819C144.111 10.1041 144.111 10.1041 144.111 10.1042C144.11 10.1042 144.11 10.1043 144.109 10.1045C144.108 10.1047 144.106 10.1051 144.104 10.1057C144.098 10.1068 144.091 10.1085 144.08 10.1107C144.059 10.1152 144.028 10.1219 143.986 10.1308C143.902 10.1485 143.776 10.1749 143.611 10.2093C143.281 10.2781 142.792 10.3789 142.159 10.5066C140.893 10.7619 139.051 11.1244 136.751 11.5529C132.15 12.4099 125.717 13.5302 118.391 14.5828C103.717 16.6911 85.5354 18.5164 71.3083 17.4424L71.1578 19.4368Z" fill="white"/>
<g opacity="0.3" filter="url(#filter0_f_528_256)">
<path d="M148.16 15.625C148.46 15.1613 148.328 14.5422 147.864 14.2422L140.307 9.3542C139.843 9.05424 139.224 9.18701 138.924 9.65074C138.624 10.1145 138.757 10.7336 139.221 11.0335L145.938 15.3784L141.593 22.0957C141.293 22.5594 141.426 23.1785 141.89 23.4785C142.353 23.7784 142.972 23.6457 143.272 23.1819L148.16 15.625ZM74.2331 22.4396L74.3083 21.4424L74.2331 22.4396ZM4.88281 5C4.53571 5.93783 4.53594 5.93791 4.53634 5.93806C4.53668 5.93819 4.53724 5.93839 4.53792 5.93864C4.53929 5.93915 4.54129 5.93989 4.54391 5.94086C4.54915 5.9428 4.5569 5.94566 4.56713 5.94942C4.58758 5.95696 4.61795 5.96814 4.65801 5.98284C4.73813 6.01224 4.85705 6.05574 5.01309 6.11249C5.32517 6.22597 5.78574 6.3924 6.3814 6.6048C7.5727 7.0296 9.30447 7.63832 11.4694 8.37516C15.7988 9.8487 21.8626 11.8353 28.8017 13.8882C42.6606 17.9882 60.083 22.3743 74.1578 23.4368L74.3083 21.4424C60.4564 20.3968 43.2036 16.0632 29.3691 11.9704C22.4615 9.92683 16.424 7.94883 12.1138 6.48182C9.9589 5.74839 8.23628 5.14287 7.05314 4.72099C6.46158 4.51005 6.00493 4.34503 5.69658 4.2329C5.54241 4.17684 5.42532 4.134 5.34698 4.10525C5.30781 4.09088 5.27833 4.08003 5.25875 4.07282C5.24896 4.06921 5.24165 4.06651 5.23683 4.06473C5.23443 4.06384 5.23264 4.06318 5.23149 4.06276C5.23091 4.06254 5.23052 4.0624 5.23023 4.06229C5.23 4.0622 5.22992 4.06217 4.88281 5ZM74.1578 23.4368C88.6139 24.528 106.976 22.6744 121.675 20.5625C129.035 19.5051 135.496 18.3799 140.117 17.5191C142.428 17.0886 144.28 16.7241 145.554 16.4671C146.192 16.3386 146.685 16.2369 147.019 16.1673C147.186 16.1325 147.313 16.1056 147.399 16.0875C147.442 16.0784 147.475 16.0715 147.497 16.0668C147.508 16.0645 147.516 16.0627 147.522 16.0615C147.524 16.0609 147.527 16.0605 147.528 16.0602C147.529 16.06 147.529 16.0599 147.53 16.0598C147.53 16.0597 147.53 16.0596 147.321 15.0819C147.111 14.1041 147.111 14.1041 147.111 14.1042C147.11 14.1042 147.11 14.1043 147.109 14.1045C147.108 14.1047 147.106 14.1051 147.104 14.1057C147.098 14.1068 147.091 14.1085 147.08 14.1107C147.059 14.1152 147.028 14.1219 146.986 14.1308C146.902 14.1485 146.776 14.1749 146.611 14.2093C146.281 14.2781 145.792 14.3789 145.159 14.5066C143.893 14.7619 142.051 15.1244 139.751 15.5529C135.15 16.4099 128.717 17.5302 121.391 18.5828C106.717 20.6911 88.5354 22.5164 74.3083 21.4424L74.1578 23.4368Z" fill="#673F1B"/>
</g>
<defs>
<filter id="filter0_f_528_256" x="0.537109" y="0.0625" width="151.783" height="27.6973" filterUnits="userSpaceOnUse" color-interpolation-filters="sRGB">
<feFlood flood-opacity="0" result="BackgroundImageFix"/>
<feBlend mode="normal" in="SourceGraphic" in2="BackgroundImageFix" result="shape"/>
<feGaussianBlur stdDeviation="2" result="effect1_foregroundBlur_528_256"/>
</filter>
</defs>
</svg>
