<svg width="12" height="9" viewBox="0 0 12 9" fill="none" xmlns="http://www.w3.org/2000/svg">
<g id="Vector">
<path id="Vector_2" fill-rule="evenodd" clip-rule="evenodd" d="M11.8537 0.646894C11.9002 0.693339 11.9372 0.748515 11.9624 0.80926C11.9876 0.870005 12.0005 0.935127 12.0005 1.00089C12.0005 1.06666 11.9876 1.13178 11.9624 1.19253C11.9372 1.25327 11.9002 1.30845 11.8537 1.35489L4.85365 8.35489C4.80721 8.40146 4.75203 8.4384 4.69129 8.46361C4.63054 8.48881 4.56542 8.50179 4.49965 8.50179C4.43389 8.50179 4.36877 8.48881 4.30802 8.46361C4.24728 8.4384 4.1921 8.40146 4.14565 8.35489L0.645655 4.85489C0.551768 4.76101 0.499023 4.63367 0.499023 4.50089C0.499023 4.36812 0.551768 4.24078 0.645655 4.14689C0.739542 4.05301 0.866879 4.00026 0.999655 4.00026C1.13243 4.00026 1.25977 4.05301 1.35366 4.14689L4.49965 7.29389L11.1457 0.646894C11.1921 0.600331 11.2473 0.563388 11.308 0.538181C11.3688 0.512975 11.4339 0.5 11.4997 0.5C11.5654 0.5 11.6305 0.512975 11.6913 0.538181C11.752 0.563388 11.8072 0.600331 11.8537 0.646894Z" fill="white"/>
</g>
</svg>
