<svg width="77" height="77" viewBox="0 0 77 77" fill="none" xmlns="http://www.w3.org/2000/svg">
<path d="M47.2055 51.6841C47.0103 51.6842 46.8182 51.6366 46.6456 51.5455L38.501 47.2629L30.3559 51.5455C30.1572 51.65 29.9333 51.6967 29.7094 51.6806C29.4855 51.6644 29.2706 51.586 29.089 51.4541C28.9074 51.3222 28.7662 51.1421 28.6816 50.9343C28.5969 50.7264 28.5721 50.499 28.6099 50.2777L30.1655 41.2073L23.576 34.7839C23.4153 34.6273 23.3017 34.4288 23.2479 34.2109C23.1941 33.993 23.2024 33.7644 23.2718 33.551C23.3412 33.3376 23.4689 33.1478 23.6404 33.0032C23.812 32.8585 24.0206 32.7648 24.2427 32.7325L33.3496 31.4084L37.4219 23.1569C37.8284 22.3344 39.1737 22.3344 39.5802 23.1569L43.6525 31.4084L52.7588 32.7325C52.9809 32.7648 53.1895 32.8585 53.3611 33.0032C53.5327 33.1478 53.6604 33.3376 53.7297 33.551C53.7991 33.7644 53.8074 33.993 53.7536 34.2109C53.6999 34.4288 53.5862 34.6273 53.4256 34.7839L46.836 41.2073L48.3916 50.2777C48.421 50.4504 48.4124 50.6274 48.3664 50.7964C48.3204 50.9654 48.238 51.1224 48.1251 51.2563C48.0121 51.3902 47.8713 51.4978 47.7125 51.5717C47.5537 51.6456 47.3806 51.684 47.2055 51.6841ZM27.0014 34.7628L32.2986 39.9266C32.4381 40.0628 32.5424 40.2308 32.6027 40.4163C32.663 40.6017 32.6774 40.7989 32.6446 40.9911L31.3939 48.2815L37.9412 44.839C38.1136 44.7476 38.3058 44.6998 38.501 44.6998C38.6962 44.6998 38.8884 44.7476 39.0609 44.839L45.6076 48.2815L44.3574 40.9911C44.3247 40.7989 44.3391 40.6017 44.3993 40.4163C44.4596 40.2308 44.564 40.0628 44.7035 39.9266L50 34.7628L42.6802 33.6983C42.4872 33.6703 42.3039 33.5958 42.1461 33.4812C41.9883 33.3666 41.8607 33.2153 41.7744 33.0404L38.501 26.4079L35.2277 33.0405C35.1413 33.2154 35.0138 33.3666 34.8559 33.4813C34.6981 33.5959 34.5148 33.6704 34.3218 33.6984L27.0014 34.7628Z" fill="white"/>
<path d="M38.5013 60.2769C26.4935 60.2769 16.7246 50.5074 16.7246 38.4996C16.7246 26.4919 26.4935 16.7236 38.5013 16.7236C50.509 16.7236 60.278 26.492 60.278 38.4997C60.278 50.5075 50.509 60.2769 38.5013 60.2769ZM38.5013 19.1298C34.6702 19.1298 30.9251 20.2659 27.7396 22.3944C24.5541 24.5228 22.0714 27.5481 20.6053 31.0876C19.1392 34.6272 18.7556 38.5219 19.5031 42.2794C20.2506 46.037 22.0955 49.4884 24.8045 52.1974C27.5136 54.9064 30.9651 56.7512 34.7227 57.4985C38.4802 58.2459 42.375 57.8622 45.9145 56.396C49.4539 54.9298 52.4791 52.447 54.6075 49.2614C56.7359 46.0759 57.8718 42.3308 57.8717 38.4996C57.8657 33.3642 55.8229 28.4408 52.1916 24.8096C48.5602 21.1783 43.6367 19.1357 38.5013 19.1298Z" fill="white"/>
<path d="M44.4987 69.1119C43.7507 69.1114 43.0154 68.9179 42.3639 68.5503L39.4518 66.9137C39.1613 66.7507 38.8338 66.6652 38.5007 66.6652C38.1676 66.6652 37.8401 66.7507 37.5496 66.9137L34.6358 68.5503C33.6958 69.0813 32.5916 69.2426 31.5389 69.0028C30.4863 68.7629 29.561 68.139 28.9439 67.2532L27.0264 64.5133C26.8333 64.2433 26.5753 64.0262 26.2762 63.8823C25.9771 63.7383 25.6466 63.6721 25.3151 63.6897L21.976 63.8953C20.8991 63.9668 19.8343 63.6332 18.9908 62.96C18.1472 62.2867 17.5858 61.3225 17.4167 60.2565L16.878 56.9573C16.8254 56.6279 16.6883 56.3177 16.4802 56.057C16.272 55.7963 15.9998 55.594 15.6901 55.4699L12.5977 54.215C11.5959 53.8116 10.7807 53.0487 10.3118 52.0758C9.84293 51.1028 9.75413 49.9899 10.0628 48.9549L11.008 45.7497C11.1009 45.4309 11.1109 45.0936 11.0371 44.7698C10.9633 44.446 10.8081 44.1463 10.5862 43.8992L8.34153 41.4154C7.61663 40.6174 7.21495 39.578 7.21484 38.4999C7.21474 37.4218 7.6162 36.3824 8.34094 35.5842L10.5868 33.0992C10.8085 32.8518 10.9636 32.552 11.0374 32.228C11.1112 31.904 11.1013 31.5666 11.0086 31.2476L10.0628 28.0424C9.7544 27.0074 9.84332 25.8945 10.3122 24.9217C10.781 23.9488 11.596 23.1859 12.5977 22.7822L15.693 21.5262C16.0008 21.4001 16.2713 21.1976 16.4789 20.9377C16.6865 20.6778 16.8242 20.3692 16.8791 20.0411L17.4184 16.7407C17.5872 15.6746 18.1487 14.7101 18.9924 14.0367C19.8362 13.3634 20.9012 13.03 21.9783 13.102L25.3174 13.3088C25.6493 13.33 25.9811 13.2653 26.2807 13.1208C26.5803 12.9763 26.8375 12.757 27.0275 12.484L28.9445 9.74641C29.5613 8.85983 30.487 8.23552 31.5401 7.9958C32.5932 7.75608 33.6978 7.91823 34.6376 8.45048L37.5491 10.086C37.8403 10.2478 38.1679 10.3327 38.5011 10.3327C38.8342 10.3327 39.1618 10.2478 39.453 10.086L42.3651 8.44929C43.3049 7.91817 44.4091 7.75666 45.4617 7.99632C46.5143 8.23598 47.4397 8.85958 48.057 9.74524L49.9751 12.4852C50.1661 12.757 50.4234 12.9754 50.7227 13.1195C51.0219 13.2637 51.3531 13.3289 51.6846 13.3088L55.025 13.1032C56.1008 13.0368 57.1629 13.3723 58.0053 14.0446C58.8478 14.717 59.4105 15.6782 59.5843 16.742L60.1235 20.0423C60.1783 20.3706 60.316 20.6793 60.5236 20.9394C60.7312 21.1995 61.0017 21.4023 61.3096 21.5286L64.4031 22.7834C65.4052 23.1869 66.2207 23.9499 66.6897 24.9231C67.1586 25.8963 67.2474 27.0095 66.9386 28.0448L65.9934 31.2488C65.9004 31.5676 65.8903 31.9049 65.964 32.2287C66.0377 32.5525 66.1928 32.8521 66.4146 33.0993L68.6593 35.5831C69.384 36.3811 69.7856 37.4205 69.7857 38.4986C69.7858 39.5766 69.3845 40.616 68.6599 41.4143L66.4152 43.8992C66.1932 44.1464 66.0378 44.4463 65.9639 44.7703C65.89 45.0943 65.9 45.4318 65.9928 45.7509L66.9381 48.9561C67.2469 49.9911 67.1581 51.1041 66.6893 52.077C66.2204 53.05 65.4051 53.8129 64.4032 54.2162L61.3084 55.4722C61.0004 55.5984 60.7297 55.8011 60.522 56.0612C60.3144 56.3213 60.1766 56.6302 60.1217 56.9585L59.583 60.2577C59.4104 61.3222 58.8478 62.2844 58.0049 62.957C57.1619 63.6296 56.0988 63.9644 55.0226 63.8964L51.6846 63.6908C51.3525 63.67 51.0206 63.7349 50.7208 63.8793C50.421 64.0238 50.1634 64.2429 49.9727 64.5156L48.057 67.252C47.6578 67.8259 47.1257 68.2948 46.5061 68.6186C45.8865 68.9425 45.1978 69.1117 44.4987 69.1119ZM38.5007 64.2618C39.2466 64.2608 39.9803 64.4514 40.6315 64.8153L43.5429 66.4519C43.9626 66.69 44.4561 66.7626 44.9265 66.6554C45.397 66.5483 45.8104 66.2691 46.0855 65.8727L48.0018 63.1351C48.4316 62.5278 49.0087 62.0398 49.6789 61.7169C50.3491 61.3941 51.0905 61.2469 51.8332 61.2893L55.1712 61.4949C55.6523 61.5273 56.1282 61.3786 56.5052 61.0779C56.8823 60.7772 57.1331 60.3463 57.2085 59.87L57.7472 56.5708C57.8698 55.8356 58.1782 55.144 58.6431 54.5614C59.108 53.9789 59.714 53.5248 60.4037 53.2422L63.4979 51.9862C63.9453 51.8062 64.3095 51.4656 64.519 51.0312C64.7285 50.5967 64.7682 50.0998 64.6305 49.6375L63.6853 46.4323C63.4772 45.7179 63.4547 44.9622 63.62 44.2367C63.7853 43.5112 64.1329 42.8398 64.6299 42.2861L66.874 39.8022L66.8746 39.801C67.1982 39.4443 67.3774 38.98 67.3773 38.4985C67.3771 38.017 67.1977 37.5527 66.874 37.1962L64.6299 34.7136C64.1329 34.1598 63.7854 33.4884 63.6202 32.7629C63.455 32.0374 63.4776 31.2817 63.6859 30.5673L64.6311 27.3633C64.769 26.9008 64.7292 26.4036 64.5196 25.9689C64.31 25.5342 63.9456 25.1935 63.4979 25.0135L60.4049 23.7586C59.7153 23.4761 59.1093 23.022 58.6444 22.4394C58.1796 21.8569 57.8714 21.1652 57.749 20.4301L57.2097 17.1297C57.1301 16.6556 56.8783 16.2275 56.5025 15.9277C56.1267 15.6278 55.6535 15.4772 55.1735 15.5048L51.8332 15.7104C51.0906 15.7556 50.3487 15.6098 49.6784 15.2869C49.0081 14.964 48.4317 14.4747 48.0041 13.8658L46.086 11.1258C45.8101 10.7306 45.3969 10.4523 44.9269 10.3452C44.457 10.2381 43.964 10.3099 43.5441 10.5466L40.6309 12.1844C39.9796 12.5473 39.2465 12.7378 38.501 12.7378C37.7555 12.7378 37.0224 12.5473 36.3712 12.1844L33.4585 10.5477C33.0387 10.31 32.5452 10.2377 32.0748 10.3448C31.6044 10.452 31.1909 10.7309 30.9154 11.127L28.9991 13.8634C28.5723 14.4734 27.996 14.9636 27.3255 15.287C26.6549 15.6104 25.9125 15.7562 25.1694 15.7103L21.8291 15.5036C21.3492 15.4763 20.8761 15.627 20.5005 15.9269C20.1248 16.2267 19.8729 16.6545 19.793 17.1285L19.2537 20.4289C19.1311 21.1638 18.8227 21.8552 18.3579 22.4375C17.8931 23.0199 17.2872 23.4738 16.5978 23.7562L13.503 25.0122C13.0556 25.1927 12.6915 25.5335 12.4821 25.9681C12.2726 26.4026 12.2328 26.8997 12.3704 27.3621L13.3162 30.5661C13.5241 31.2805 13.5466 32.0361 13.3814 32.7616C13.2162 33.487 12.8689 34.1584 12.3721 34.7124L10.1262 37.1974C9.80274 37.5538 9.62353 38.0179 9.62353 38.4992C9.62353 38.9805 9.80274 39.4446 10.1262 39.801L12.3709 42.2848C12.868 42.8386 13.2156 43.51 13.3809 44.2355C13.5462 44.961 13.5237 45.7167 13.3156 46.4311L12.3704 49.6364C12.2326 50.0986 12.2724 50.5956 12.4819 51.03C12.6914 51.4644 13.0555 51.805 13.503 51.985L16.5959 53.2399C17.2855 53.5229 17.8914 53.9773 18.3563 54.56C18.8212 55.1427 19.1297 55.8344 19.2524 56.5696L19.7911 59.8688C19.8693 60.3436 20.1207 60.7725 20.4968 61.0727C20.8729 61.3728 21.347 61.5229 21.8273 61.4937L25.1676 61.2881C25.9106 61.2408 26.6533 61.3856 27.3241 61.7087C27.9949 62.0318 28.5711 62.5223 28.9973 63.1327L30.9148 65.8727C31.19 66.269 31.6033 66.5481 32.0737 66.6552C32.5441 66.7624 33.0376 66.6899 33.4573 66.4519L36.3705 64.8152C37.0215 64.4513 37.755 64.2607 38.5007 64.2618Z" fill="white"/>
<path d="M6.08 39.4C6.08 40.2427 6.26133 40.9947 6.624 41.656C6.99733 42.3173 7.504 42.84 8.144 43.224C8.784 43.608 9.50933 43.8 10.32 43.8C11.1413 43.8 11.8667 43.608 12.496 43.224C13.136 42.84 13.6373 42.3173 14 41.656C14.3733 40.9947 14.56 40.2427 14.56 39.4C14.56 38.5573 14.3733 37.8053 14 37.144C13.6373 36.4827 13.136 35.96 12.496 35.576C11.8667 35.192 11.1413 35 10.32 35C9.50933 35 8.784 35.192 8.144 35.576C7.504 35.96 6.99733 36.4827 6.624 37.144C6.26133 37.8053 6.08 38.5573 6.08 39.4ZM4.64 39.4C4.64 38.5787 4.77867 37.8213 5.056 37.128C5.344 36.424 5.744 35.816 6.256 35.304C6.768 34.7813 7.37067 34.376 8.064 34.088C8.75733 33.7893 9.50933 33.64 10.32 33.64C11.1413 33.64 11.8933 33.7893 12.576 34.088C13.2693 34.376 13.872 34.7813 14.384 35.304C14.896 35.816 15.2907 36.424 15.568 37.128C15.856 37.8213 16 38.5787 16 39.4C16 40.2107 15.856 40.968 15.568 41.672C15.2907 42.376 14.896 42.9893 14.384 43.512C13.872 44.024 13.2693 44.4293 12.576 44.728C11.8933 45.016 11.1413 45.16 10.32 45.16C9.50933 45.16 8.75733 45.016 8.064 44.728C7.37067 44.4293 6.768 44.024 6.256 43.512C5.744 42.9893 5.344 42.376 5.056 41.672C4.77867 40.968 4.64 40.2107 4.64 39.4ZM10.064 40.2H11.824L16.624 45H14.864L10.064 40.2ZM21.8406 42.12C21.8406 42.7067 21.974 43.16 22.2406 43.48C22.5073 43.8 22.8966 43.96 23.4086 43.96C23.782 43.96 24.1073 43.8853 24.3846 43.736C24.6726 43.576 24.8913 43.3573 25.0406 43.08C25.2006 42.8027 25.2806 42.4827 25.2806 42.12V37.64H26.5606V45H25.2806V43.848C25.0353 44.2853 24.7313 44.616 24.3686 44.84C24.006 45.0533 23.5793 45.16 23.0886 45.16C22.3206 45.16 21.7073 44.8987 21.2486 44.376C20.79 43.8533 20.5606 43.1547 20.5606 42.28V37.64H21.8406V42.12ZM32.2629 42.728C32.2629 43.0053 32.3269 43.2453 32.4549 43.448C32.5935 43.6507 32.7802 43.8053 33.0149 43.912C33.2602 44.008 33.5375 44.056 33.8469 44.056C34.2415 44.056 34.5935 43.976 34.9029 43.816C35.2229 43.656 35.4735 43.432 35.6549 43.144C35.8469 42.8453 35.9429 42.504 35.9429 42.12L36.1989 43.08C36.1989 43.5493 36.0549 43.9387 35.7669 44.248C35.4895 44.5573 35.1429 44.7867 34.7269 44.936C34.3215 45.0853 33.9162 45.16 33.5109 45.16C33.0629 45.16 32.6415 45.0693 32.2469 44.888C31.8629 44.696 31.5535 44.424 31.3189 44.072C31.0842 43.72 30.9669 43.2933 30.9669 42.792C30.9669 42.0773 31.2175 41.5067 31.7189 41.08C32.2309 40.6427 32.9402 40.424 33.8469 40.424C34.3802 40.424 34.8229 40.488 35.1749 40.616C35.5375 40.7333 35.8255 40.872 36.0389 41.032C36.2522 41.1813 36.3962 41.304 36.4709 41.4V42.152C36.0975 41.896 35.7135 41.7147 35.3189 41.608C34.9242 41.4907 34.5029 41.432 34.0549 41.432C33.6389 41.432 33.2975 41.4853 33.0309 41.592C32.7749 41.6987 32.5829 41.848 32.4549 42.04C32.3269 42.232 32.2629 42.4613 32.2629 42.728ZM32.0709 39.336L31.4469 38.392C31.7242 38.1893 32.1029 37.9867 32.5829 37.784C33.0735 37.5813 33.6602 37.48 34.3429 37.48C34.9189 37.48 35.4202 37.5707 35.8469 37.752C36.2842 37.9227 36.6202 38.1733 36.8549 38.504C37.1002 38.8347 37.2229 39.24 37.2229 39.72V45H35.9429V39.896C35.9429 39.64 35.9002 39.432 35.8149 39.272C35.7295 39.1013 35.6069 38.968 35.4469 38.872C35.2975 38.776 35.1215 38.7067 34.9189 38.664C34.7162 38.6213 34.5029 38.6 34.2789 38.6C33.9162 38.6 33.5855 38.6427 33.2869 38.728C32.9989 38.8133 32.7535 38.9147 32.5509 39.032C32.3482 39.1493 32.1882 39.2507 32.0709 39.336ZM42.11 32.52H43.39V45H42.11V32.52ZM48.5175 34.6C48.5175 34.3547 48.6028 34.1467 48.7735 33.976C48.9548 33.8053 49.1628 33.72 49.3975 33.72C49.6428 33.72 49.8508 33.8053 50.0215 33.976C50.1922 34.1467 50.2775 34.3547 50.2775 34.6C50.2775 34.8347 50.1922 35.0427 50.0215 35.224C49.8508 35.3947 49.6428 35.48 49.3975 35.48C49.1628 35.48 48.9548 35.3947 48.7735 35.224C48.6028 35.0427 48.5175 34.8347 48.5175 34.6ZM48.7575 37.64H50.0375V45H48.7575V37.64ZM54.2737 37.64H57.9537V38.84H54.2737V37.64ZM55.4737 35.08H56.7537V45H55.4737V35.08ZM62.5335 42.84C62.5335 43.096 62.5922 43.3147 62.7095 43.496C62.8268 43.6667 62.9975 43.8 63.2215 43.896C63.4562 43.9813 63.7442 44.024 64.0855 44.024C64.5122 44.024 64.8908 43.96 65.2215 43.832C65.5522 43.704 65.8082 43.5013 65.9895 43.224C66.1815 42.9467 66.2775 42.5787 66.2775 42.12L66.5335 42.92C66.5335 43.3893 66.4055 43.7947 66.1495 44.136C65.9042 44.4667 65.5735 44.7227 65.1575 44.904C64.7415 45.0747 64.2775 45.16 63.7655 45.16C63.2642 45.16 62.8215 45.0747 62.4375 44.904C62.0535 44.7227 61.7548 44.472 61.5415 44.152C61.3388 43.832 61.2375 43.448 61.2375 43C61.2375 42.424 61.3762 41.9493 61.6535 41.576C61.9308 41.192 62.3042 40.904 62.7735 40.712C63.2535 40.52 63.7868 40.424 64.3735 40.424C64.8428 40.424 65.2428 40.488 65.5735 40.616C65.9148 40.7333 66.1868 40.872 66.3895 41.032C66.5922 41.1813 66.7308 41.304 66.8055 41.4V42.152C66.4428 41.896 66.0748 41.7093 65.7015 41.592C65.3282 41.464 64.9068 41.4 64.4375 41.4C64.0108 41.4 63.6535 41.4587 63.3655 41.576C63.0882 41.6933 62.8802 41.8587 62.7415 42.072C62.6028 42.2853 62.5335 42.5413 62.5335 42.84ZM62.5335 39.368L61.9095 38.392C62.1868 38.1893 62.5602 37.9867 63.0295 37.784C63.4988 37.5813 64.0642 37.48 64.7255 37.48C65.2908 37.48 65.7815 37.5707 66.1975 37.752C66.6242 37.9227 66.9548 38.1733 67.1895 38.504C67.4348 38.8347 67.5575 39.24 67.5575 39.72V45H66.2775V39.72C66.2775 39.3467 66.1175 39.0693 65.7975 38.888C65.4882 38.696 65.1308 38.6 64.7255 38.6C64.3735 38.6 64.0535 38.648 63.7655 38.744C63.4775 38.8293 63.2268 38.936 63.0135 39.064C62.8108 39.1813 62.6508 39.2827 62.5335 39.368ZM62.1655 34.12L63.3655 33.48L65.7655 36.04L65.0455 36.52L62.1655 34.12Z" fill="white"/>
<path d="M7.4 65.52H6.12V54.64H7.4V65.52ZM13.56 58.32C13.56 59.1093 13.3947 59.792 13.064 60.368C12.7333 60.944 12.2907 61.3867 11.736 61.696C11.192 62.0053 10.584 62.16 9.912 62.16C9.304 62.16 8.76533 62.0053 8.296 61.696C7.83733 61.3867 7.47467 60.944 7.208 60.368C6.952 59.792 6.824 59.1093 6.824 58.32C6.824 57.52 6.952 56.8373 7.208 56.272C7.47467 55.696 7.83733 55.2533 8.296 54.944C8.76533 54.6347 9.304 54.48 9.912 54.48C10.584 54.48 11.192 54.6347 11.736 54.944C12.2907 55.2533 12.7333 55.696 13.064 56.272C13.3947 56.8373 13.56 57.52 13.56 58.32ZM12.264 58.32C12.264 57.7547 12.1467 57.2747 11.912 56.88C11.688 56.4853 11.384 56.1867 11 55.984C10.6267 55.7813 10.2107 55.68 9.752 55.68C9.37867 55.68 9.01067 55.7813 8.648 55.984C8.28533 56.1867 7.98667 56.4853 7.752 56.88C7.51733 57.2747 7.4 57.7547 7.4 58.32C7.4 58.8853 7.51733 59.3653 7.752 59.76C7.98667 60.1547 8.28533 60.4533 8.648 60.656C9.01067 60.8587 9.37867 60.96 9.752 60.96C10.2107 60.96 10.6267 60.8587 11 60.656C11.384 60.4533 11.688 60.1547 11.912 59.76C12.1467 59.3653 12.264 58.8853 12.264 58.32ZM17.645 54.64V62H16.365V54.64H17.645ZM19.869 56.048C19.6983 55.92 19.5437 55.8293 19.405 55.776C19.2663 55.712 19.0903 55.68 18.877 55.68C18.557 55.68 18.3063 55.76 18.125 55.92C17.9437 56.08 17.8157 56.2987 17.741 56.576C17.677 56.8533 17.645 57.168 17.645 57.52H17.069C17.069 56.9333 17.1703 56.416 17.373 55.968C17.5863 55.5093 17.8583 55.1467 18.189 54.88C18.5197 54.6133 18.8557 54.48 19.197 54.48C19.4637 54.48 19.709 54.5173 19.933 54.592C20.1677 54.656 20.381 54.7893 20.573 54.992L19.869 56.048ZM25.503 62.16C24.8203 62.16 24.2123 62 23.679 61.68C23.1563 61.3493 22.7457 60.896 22.447 60.32C22.159 59.744 22.015 59.0773 22.015 58.32C22.015 57.552 22.1643 56.88 22.463 56.304C22.7723 55.728 23.199 55.28 23.743 54.96C24.2977 54.64 24.9377 54.48 25.663 54.48C26.3883 54.48 27.007 54.6347 27.519 54.944C28.0417 55.2427 28.4417 55.6747 28.719 56.24C28.9963 56.8053 29.135 57.4773 29.135 58.256C29.135 58.3307 29.1297 58.4107 29.119 58.496C29.119 58.5707 29.119 58.6187 29.119 58.64H22.831V57.552H28.111L27.599 58.288C27.631 58.2347 27.663 58.1547 27.695 58.048C27.727 57.9307 27.743 57.8347 27.743 57.76C27.743 57.3227 27.6523 56.944 27.471 56.624C27.3003 56.304 27.0603 56.0533 26.751 55.872C26.4417 55.6907 26.079 55.6 25.663 55.6C25.1723 55.6 24.751 55.7067 24.399 55.92C24.0577 56.1227 23.791 56.4213 23.599 56.816C23.4177 57.2 23.3217 57.6747 23.311 58.24C23.311 58.816 23.4017 59.3067 23.583 59.712C23.7643 60.1173 24.031 60.4267 24.383 60.64C24.735 60.8533 25.1617 60.96 25.663 60.96C26.1643 60.96 26.607 60.8533 26.991 60.64C27.375 60.416 27.7003 60.08 27.967 59.632L29.007 60.288C28.623 60.9067 28.1377 61.376 27.551 61.696C26.975 62.0053 26.2923 62.16 25.503 62.16ZM42.0094 57.36V62H40.7294V57.52C40.7294 56.8907 40.612 56.4267 40.3774 56.128C40.1534 55.8293 39.8014 55.68 39.3214 55.68C38.9694 55.68 38.6654 55.7547 38.4094 55.904C38.1534 56.0427 37.956 56.2507 37.8174 56.528C37.6787 56.8053 37.6094 57.136 37.6094 57.52V62H36.3294V57.52C36.3294 56.8907 36.212 56.4267 35.9774 56.128C35.7534 55.8293 35.4014 55.68 34.9214 55.68C34.5694 55.68 34.2654 55.7547 34.0094 55.904C33.7534 56.0427 33.556 56.2507 33.4174 56.528C33.2787 56.8053 33.2094 57.136 33.2094 57.52V62H31.9294V54.64H33.2094V55.712C33.4334 55.296 33.7107 54.9867 34.0414 54.784C34.3827 54.5813 34.7827 54.48 35.2414 54.48C35.7534 54.48 36.1907 54.6027 36.5534 54.848C36.9267 55.0827 37.1987 55.4187 37.3694 55.856C37.6254 55.3973 37.9454 55.056 38.3294 54.832C38.7134 54.5973 39.1507 54.48 39.6414 54.48C40.1427 54.48 40.5694 54.592 40.9214 54.816C41.2734 55.04 41.54 55.3707 41.7214 55.808C41.9134 56.2347 42.0094 56.752 42.0094 57.36ZM45.4537 51.6C45.4537 51.3547 45.5391 51.1467 45.7097 50.976C45.8911 50.8053 46.0991 50.72 46.3338 50.72C46.5791 50.72 46.7871 50.8053 46.9578 50.976C47.1284 51.1467 47.2137 51.3547 47.2137 51.6C47.2137 51.8347 47.1284 52.0427 46.9578 52.224C46.7871 52.3947 46.5791 52.48 46.3338 52.48C46.0991 52.48 45.8911 52.3947 45.7097 52.224C45.5391 52.0427 45.4537 51.8347 45.4537 51.6ZM45.6937 54.64H46.9737V62H45.6937V54.64ZM51.93 59.12C51.93 59.7067 52.0633 60.16 52.33 60.48C52.5967 60.8 52.986 60.96 53.498 60.96C53.8713 60.96 54.1967 60.8853 54.474 60.736C54.762 60.576 54.9807 60.3573 55.13 60.08C55.29 59.8027 55.37 59.4827 55.37 59.12V54.64H56.65V62H55.37V60.848C55.1247 61.2853 54.8207 61.616 54.458 61.84C54.0953 62.0533 53.6687 62.16 53.178 62.16C52.41 62.16 51.7967 61.8987 51.338 61.376C50.8793 60.8533 50.65 60.1547 50.65 59.28V54.64H51.93V59.12ZM70.1762 57.36V62H68.8962V57.52C68.8962 56.8907 68.7789 56.4267 68.5442 56.128C68.3202 55.8293 67.9682 55.68 67.4882 55.68C67.1362 55.68 66.8322 55.7547 66.5762 55.904C66.3202 56.0427 66.1229 56.2507 65.9842 56.528C65.8456 56.8053 65.7762 57.136 65.7762 57.52V62H64.4962V57.52C64.4962 56.8907 64.3789 56.4267 64.1442 56.128C63.9202 55.8293 63.5682 55.68 63.0882 55.68C62.7362 55.68 62.4322 55.7547 62.1762 55.904C61.9202 56.0427 61.7229 56.2507 61.5842 56.528C61.4456 56.8053 61.3762 57.136 61.3762 57.52V62H60.0962V54.64H61.3762V55.712C61.6002 55.296 61.8776 54.9867 62.2082 54.784C62.5496 54.5813 62.9496 54.48 63.4082 54.48C63.9202 54.48 64.3576 54.6027 64.7202 54.848C65.0936 55.0827 65.3656 55.4187 65.5362 55.856C65.7922 55.3973 66.1122 55.056 66.4962 54.832C66.8802 54.5973 67.3176 54.48 67.8082 54.48C68.3096 54.48 68.7362 54.592 69.0882 54.816C69.4402 55.04 69.7069 55.3707 69.8882 55.808C70.0802 56.2347 70.1762 56.752 70.1762 57.36Z" fill="white"/>
</svg>
